REM DIRINDEX 1\2\4,1\2\5,1\2\6,1\2\7,1\3\8,1\3\9
REM DIRNAME cjc037,folder01,folder02,folder03,folder04,folder05,folder06,folder07,folder08
TITLE ""
FILE "Disc1Track10.mp3" MP3
  TRACK 01 AUDIO
    TITLE "0:"
    INDEX 01 00:00:00
  TRACK 02 AUDIO
    TITLE "4:cjc037_0542"
    INDEX 01 00:00:05
  TRACK 03 AUDIO
    TITLE "0:"
    INDEX 01 00:01:34
  TRACK 04 AUDIO
    TITLE "4:cjc037_0543"
    INDEX 01 00:02:28
  TRACK 05 AUDIO
    TITLE "0:"
    INDEX 01 00:04:09
  TRACK 06 AUDIO
    TITLE "5:cjc037_0544"
    INDEX 01 00:04:62
  TRACK 07 AUDIO
    TITLE "0:"
    INDEX 01 00:07:47
  TRACK 08 AUDIO
    TITLE "6:cjc037_0545"
    INDEX 01 00:11:09
  TRACK 09 AUDIO
    TITLE "0:"
    INDEX 01 00:13:30
  TRACK 10 AUDIO
    TITLE "7:cjc037_0546"
    INDEX 01 00:16:65
  TRACK 11 AUDIO
    TITLE "0:"
    INDEX 01 00:18:62
  TRACK 12 AUDIO
    TITLE "4:cjc037_0547"
    INDEX 01 00:21:19
  TRACK 13 AUDIO
    TITLE "0:"
    INDEX 01 00:22:68
  TRACK 14 AUDIO
    TITLE "5:cjc037_0548"
    INDEX 01 00:23:46
  TRACK 15 AUDIO
    TITLE "0:"
    INDEX 01 00:28:29
  TRACK 16 AUDIO
    TITLE "6:cjc037_0549"
    INDEX 01 00:31:63
  TRACK 17 AUDIO
    TITLE "0:"
    INDEX 01 00:34:71
  TRACK 18 AUDIO
    TITLE "7:cjc037_0550"
    INDEX 01 00:38:30
  TRACK 19 AUDIO
    TITLE "0:"
    INDEX 01 00:40:62
  TRACK 20 AUDIO
    TITLE "4:cjc037_0551"
    INDEX 01 00:43:21
  TRACK 21 AUDIO
    TITLE "0:"
    INDEX 01 00:45:08
  TRACK 22 AUDIO
    TITLE "5:cjc037_0552"
    INDEX 01 00:45:57
  TRACK 23 AUDIO
    TITLE "0:"
    INDEX 01 00:49:37
  TRACK 24 AUDIO
    TITLE "6:cjc037_0553"
    INDEX 01 00:52:71
  TRACK 25 AUDIO
    TITLE "0:"
    INDEX 01 00:56:33
  TRACK 26 AUDIO
    TITLE "7:cjc037_0554"
    INDEX 01 00:59:69
  TRACK 27 AUDIO
    TITLE "0:"
    INDEX 01 01:02:57
  TRACK 28 AUDIO
    TITLE "4:cjc037_0555"
    INDEX 01 01:05:17
  TRACK 29 AUDIO
    TITLE "0:"
    INDEX 01 01:07:00
  TRACK 30 AUDIO
    TITLE "5:cjc037_0556"
    INDEX 01 01:07:53
  TRACK 31 AUDIO
    TITLE "0:"
    INDEX 01 01:12:07
  TRACK 32 AUDIO
    TITLE "6:cjc037_0557"
    INDEX 01 01:15:44
  TRACK 33 AUDIO
    TITLE "0:"
    INDEX 01 01:18:27
  TRACK 34 AUDIO
    TITLE "7:cjc037_0558"
    INDEX 01 01:21:61
  TRACK 35 AUDIO
    TITLE "0:"
    INDEX 01 01:24:12
  TRACK 36 AUDIO
    TITLE "4:cjc037_0559"
    INDEX 01 01:26:46
  TRACK 37 AUDIO
    TITLE "0:"
    INDEX 01 01:28:39
  TRACK 38 AUDIO
    TITLE "5:cjc037_0560"
    INDEX 01 01:29:17
  TRACK 39 AUDIO
    TITLE "0:"
    INDEX 01 01:32:64
  TRACK 40 AUDIO
    TITLE "6:cjc037_0561"
    INDEX 01 01:36:23
  TRACK 41 AUDIO
    TITLE "0:"
    INDEX 01 01:39:49
  TRACK 42 AUDIO
    TITLE "7:cjc037_0562"
    INDEX 01 01:43:07
  TRACK 43 AUDIO
    TITLE "0:"
    INDEX 01 01:46:04
  TRACK 44 AUDIO
    TITLE "4:cjc037_0563"
    INDEX 01 01:48:38
  TRACK 45 AUDIO
    TITLE "0:"
    INDEX 01 01:50:35
  TRACK 46 AUDIO
    TITLE "5:cjc037_0564"
    INDEX 01 01:51:11
  TRACK 47 AUDIO
    TITLE "0:"
    INDEX 01 01:53:00
  TRACK 48 AUDIO
    TITLE "6:cjc037_0565"
    INDEX 01 01:56:34
  TRACK 49 AUDIO
    TITLE "0:"
    INDEX 01 01:57:68
  TRACK 50 AUDIO
    TITLE "6:cjc037_0566"
    INDEX 01 01:59:26
  TRACK 51 AUDIO
    TITLE "0:"
    INDEX 01 02:00:65
  TRACK 52 AUDIO
    TITLE "7:cjc037_0567"
    INDEX 01 02:04:25
  TRACK 53 AUDIO
    TITLE "0:"
    INDEX 01 02:05:46
  TRACK 54 AUDIO
    TITLE "7:cjc037_0568"
    INDEX 01 02:07:04
  TRACK 55 AUDIO
    TITLE "0:"
    INDEX 01 02:08:27
  TRACK 56 AUDIO
    TITLE "4:cjc037_0569"
    INDEX 01 02:10:61
  TRACK 57 AUDIO
    TITLE "0:"
    INDEX 01 02:12:40
  TRACK 58 AUDIO
    TITLE "5:cjc037_0570"
    INDEX 01 02:13:14
  TRACK 59 AUDIO
    TITLE "0:"
    INDEX 01 02:17:28
  TRACK 60 AUDIO
    TITLE "6:cjc037_0571"
    INDEX 01 02:20:61
  TRACK 61 AUDIO
    TITLE "0:"
    INDEX 01 02:23:21
  TRACK 62 AUDIO
    TITLE "7:cjc037_0572"
    INDEX 01 02:26:56
  TRACK 63 AUDIO
    TITLE "0:"
    INDEX 01 02:28:71
  TRACK 64 AUDIO
    TITLE "4:cjc037_0573"
    INDEX 01 02:31:30
  TRACK 65 AUDIO
    TITLE "0:"
    INDEX 01 02:33:23
  TRACK 66 AUDIO
    TITLE "5:cjc037_0574"
    INDEX 01 02:34:01
  TRACK 67 AUDIO
    TITLE "0:"
    INDEX 01 02:36:60
  TRACK 68 AUDIO
    TITLE "6:cjc037_0575"
    INDEX 01 02:40:17
  TRACK 69 AUDIO
    TITLE "0:"
    INDEX 01 02:42:43
  TRACK 70 AUDIO
    TITLE "7:cjc037_0576"
    INDEX 01 02:46:00
  TRACK 71 AUDIO
    TITLE "0:"
    INDEX 01 02:47:74
  TRACK 72 AUDIO
    TITLE "4:cjc037_0577"
    INDEX 01 02:50:33
  TRACK 73 AUDIO
    TITLE "0:"
    INDEX 01 02:52:14
  TRACK 74 AUDIO
    TITLE "5:cjc037_0578"
    INDEX 01 02:52:67
  TRACK 75 AUDIO
    TITLE "0:"
    INDEX 01 02:55:17
  TRACK 76 AUDIO
    TITLE "6:cjc037_0579"
    INDEX 01 02:58:52
  TRACK 77 AUDIO
    TITLE "0:"
    INDEX 01 03:01:15
  TRACK 78 AUDIO
    TITLE "7:cjc037_0580"
    INDEX 01 03:04:49
  TRACK 79 AUDIO
    TITLE "0:"
    INDEX 01 03:06:58
  TRACK 80 AUDIO
    TITLE "4:cjc037_0581"
    INDEX 01 03:09:25
  TRACK 81 AUDIO
    TITLE "0:"
    INDEX 01 03:11:20
  TRACK 82 AUDIO
    TITLE "5:cjc037_0582"
    INDEX 01 03:11:71
  TRACK 83 AUDIO
    TITLE "0:"
    INDEX 01 03:15:72
  TRACK 84 AUDIO
    TITLE "6:cjc037_0583"
    INDEX 01 03:19:31
  TRACK 85 AUDIO
    TITLE "0:"
    INDEX 01 03:22:45
  TRACK 86 AUDIO
    TITLE "7:cjc037_0584"
    INDEX 01 03:26:02
  TRACK 87 AUDIO
    TITLE "0:"
    INDEX 01 03:28:46
  TRACK 88 AUDIO
    TITLE "4:cjc037_0585"
    INDEX 01 03:31:03
  TRACK 89 AUDIO
    TITLE "0:"
    INDEX 01 03:33:00
  TRACK 90 AUDIO
    TITLE "5:cjc037_0586"
    INDEX 01 03:33:55
  TRACK 91 AUDIO
    TITLE "0:"
    INDEX 01 03:37:31
  TRACK 92 AUDIO
    TITLE "6:cjc037_0587"
    INDEX 01 03:40:72
  TRACK 93 AUDIO
    TITLE "0:"
    INDEX 01 03:43:29
  TRACK 94 AUDIO
    TITLE "7:cjc037_0588"
    INDEX 01 03:46:73
  TRACK 95 AUDIO
    TITLE "0:"
    INDEX 01 03:48:74
